<svg xmlns="http://www.w3.org/2000/svg" xmlns:xlink="http://www.w3.org/1999/xlink" width="122" height="122">
  <defs>
    <circle id="a" cx="60" cy="60" r="60"/>
    <radialGradient id="b" cx="52.101%" cy="30.594%" r="256.183%" fx="52.101%" fy="30.594%" gradientTransform="matrix(-.19047 0 0 -.25522 .62 .384)">
      <stop offset="0%"/>
      <stop offset="100%" stop-opacity=".002"/>
    </radialGradient>
    <linearGradient id="d" x1="94.668%" x2="22.848%" y1="94.914%" y2="7.02%">
      <stop offset="0%" stop-color="#F4487D"/>
      <stop offset="100%" stop-color="#FF6E9C"/>
    </linearGradient>
    <circle id="e" cx="60" cy="60" r="60"/>
    <rect id="f" width="90" height="70" x="13.5" y="25.5" rx="3"/>
    <linearGradient id="h" x1="5.685%" x2="64.523%" y1="4.626%" y2="97.88%">
      <stop offset="0%" stop-color="#5B79A2"/>
      <stop offset="100%" stop-color="#2E4469"/>
    </linearGradient>
    <rect id="g" width="90" height="67" rx="3"/>
    <linearGradient id="j" x1="10.816%" x2="85.083%" y1="5.366%" y2="55.347%">
      <stop offset="0%" stop-color="#F4487D" stop-opacity=".073"/>
      <stop offset="100%" stop-color="#FF6E9C"/>
    </linearGradient>
    <linearGradient id="k" x1="176.355%" x2="85.083%" y1="18.282%" y2="55.347%">
      <stop offset="0%" stop-color="#F4487D" stop-opacity=".16"/>
      <stop offset="100%" stop-color="#FF6E9C"/>
    </linearGradient>
    <linearGradient id="l" x1="7.358%" x2="85.083%" y1="100%" y2="55.347%">
      <stop offset="0%" stop-color="#F4487D" stop-opacity=".16"/>
      <stop offset="100%" stop-color="#FF6E9C"/>
    </linearGradient>
    <linearGradient id="m" x1="100%" x2="8.332%" y1="68.605%" y2="50%">
      <stop offset="0%" stop-color="#F4487D" stop-opacity="0"/>
      <stop offset="100%" stop-color="#FF6E9C"/>
    </linearGradient>
    <linearGradient id="n" x1="50%" x2="50%" y1="0%" y2="50.445%">
      <stop offset="0%" stop-opacity="0"/>
      <stop offset="100%" stop-opacity=".372"/>
    </linearGradient>
    <filter id="o" width="135.3%" height="122.5%" x="-17.7%" y="-11.2%" filterUnits="objectBoundingBox">
      <feGaussianBlur in="SourceGraphic" stdDeviation="1"/>
    </filter>
    <linearGradient id="q" x1="7.206%" x2="84.094%" y1="9.244%" y2="112.337%">
      <stop offset="0%" stop-color="#5B79A2"/>
      <stop offset="100%" stop-color="#2E4469"/>
    </linearGradient>
    <path id="p" d="M3.374.37l38.958 4.333A3 3 0 0 1 45 7.685v68.63a3 3 0 0 1-2.668 2.982L3.374 83.629a3 3 0 0 1-3.332-2.981V3.352A3 3 0 0 1 3.374.371z"/>
    <linearGradient id="r" x1="45.117%" x2="0%" y1="168.048%" y2="5.569%">
      <stop offset="0%" stop-color="#C4D6EB" stop-opacity=".676"/>
      <stop offset="100%" stop-color="#91ACD2" stop-opacity=".3"/>
    </linearGradient>
    <filter id="t" width="233.3%" height="233.3%" x="-66.7%" y="-66.7%" filterUnits="objectBoundingBox">
      <feGaussianBlur in="SourceGraphic" stdDeviation="2"/>
    </filter>
    <linearGradient id="u" x1="-69.072%" x2="85.083%" y1="-39.599%" y2="55.347%">
      <stop offset="0%" stop-color="#F4487D" stop-opacity=".16"/>
      <stop offset="100%" stop-color="#FF6E9C"/>
    </linearGradient>
    <rect id="v" width="7" height="67" x="53" y="27" rx="3"/>
  </defs>
  <g fill="none" fill-rule="evenodd" transform="translate(1 1)">
    <mask id="c" fill="#fff">
      <use xlink:href="#a"/>
    </mask>
    <use fill="#000" fill-opacity=".152" xlink:href="#a"/>
    <ellipse cx="55.57" cy="98.191" fill="url(#b)" mask="url(#c)" opacity=".298" rx="40.95" ry="7.8" transform="rotate(1 55.57 98.191)"/>
    <use stroke="url(#d)" stroke-width="2" xlink:href="#e"/>
    <use fill="#253B5F" xlink:href="#f"/>
    <g transform="translate(15 27)">
      <mask id="i" fill="#fff">
        <use xlink:href="#g"/>
      </mask>
      <rect width="89.8" height="66.8" x=".1" y=".1" stroke="url(#h)" stroke-width=".2" rx="3"/>
      <g mask="url(#i)">
        <path stroke="url(#j)" stroke-linejoin="round" d="M26.444 73.015V22.814h-9.442v-7.057H9.535v-4.533H3V0" opacity=".5" transform="translate(-3 -4)"/>
        <path stroke="url(#k)" stroke-linejoin="round" d="M35.09 74.1V47.71h4.013V23.212l-2.982-.055v-7.401h-3.807v-4.533H21V0" opacity=".5" transform="translate(-3 -4)"/>
        <path stroke="url(#l)" stroke-linejoin="round" d="M29 1v39.771H15.406v-8.996H.401v14.813h9.62v10.018h11.384V36.417h23.197V57.32H31.367v-7.202H15.962v23.577" opacity=".5" transform="translate(-3 -4)"/>
        <path stroke="url(#m)" d="M27.817 36.492h-6.399v20.33" transform="translate(-3 -4)"/>
      </g>
    </g>
    <path fill="url(#n)" d="M42.5 19.357L44.592 19l14.893 25.879-1.772.796z" filter="url(#o)" opacity=".5" transform="translate(15 4)"/>
    <g transform="translate(60 18)">
      <mask id="s" fill="#fff">
        <use xlink:href="#p"/>
      </mask>
      <use fill="url(#q)" xlink:href="#p"/>
      <path fill="#2E4469" stroke="url(#r)" stroke-width=".2" d="M17.678 28.009l.068-.15 7.937-1.414.1.041 7.35 10.345-.054.154-8.472 2.485-.114-.044-6.815-11.417zM-33.257 3.823l.094-.131 13.271-.133.094.064 18.115 45.92-.048.126-14.222 7.062-.14-.06-17.164-52.848zM1.545 51.208l.052-.136 22.031-8.885.12.036 7.743 11.3-.032.143L9.292 66.768l-.14-.042-7.607-15.518zm7.186 18.638a1.02 1.02 0 0 0 .338-.158l24.418-14.83c.305-.16.542-.45.64-.783.098-.329.046-.661-.138-.903l-8.124-11.605.052-.153 9.322-2.857c.328-.093.59-.346.695-.675.106-.328.041-.69-.175-.966L26.911 24.6c-.248-.374-.648-.577-1.022-.526l-10.22 1.635c-.321.06-.587.318-.706.694-.122.384-.075.835.124 1.196l7.297 12.461-.05.144L.485 48.666l-.129-.056-18.813-47.329c-.216-.61-.618-1.008-1.007-1.02L-35.037.1c-.31.003-.591.284-.745.77-.16.502-.157 1.146.007 1.714l18.328 57.025c.224.62.688.863 1.131.614l15.68-8.105.136.045 8.392 17.269c.18.346.497.498.84.414z" mask="url(#s)"/>
    </g>
    <circle cx="43.5" cy="60.5" r="6.35" fill="#2E4469" stroke="#F1476C" stroke-width=".3"/>
    <g transform="translate(31 3)">
      <circle cx="12.5" cy="57.5" r="4" fill="#F1476C"/>
      <circle cx="11.917" cy="55.917" r="4.5" fill="#F1476C" filter="url(#t)"/>
      <path stroke="url(#u)" stroke-linejoin="round" stroke-width="2" d="M31.406 15.577l-2.07-12.685L2.743 18.713l8.63 35.336"/>
      <g transform="translate(26)">
        <circle cx="3" cy="3" r="3" fill="#F1476C"/>
        <path fill="#FFF" fill-opacity=".2" d="M1.143 5.143a2.857 2.857 0 1 1 4-4 2.857 2.857 0 0 0-4 4z"/>
      </g>
      <g transform="translate(0 16)">
        <circle cx="3.5" cy="3.5" r="3.5" fill="#F1476C"/>
        <path fill="#FFF" fill-opacity=".2" d="M1.333 6A3.333 3.333 0 1 1 6 1.333 3.333 3.333 0 0 0 1.333 6z"/>
      </g>
      <path fill="#FFF" fill-opacity=".2" d="M10.333 60A3.333 3.333 0 1 1 15 55.333 3.333 3.333 0 0 0 10.333 60z"/>
    </g>
    <use fill="#000" opacity=".168" xlink:href="#v"/>
  </g>
</svg>
